# xmcd CD database file
#
# Track frame offsets:
#	150
#	15071
#	27750
#	42967
#	58123
#	73149
#	90184
#	104224
#	116100
#	129025
#	139739
#	155323
#	168898
#	184239
#	199541
#	212869
#	225735
#	238075
#	250203
#	265534
#
# Disc length: 3744 seconds
#
# Revision: 0
# Processed by: cddbd v1.5.2PL0 Copyright (c) Steve Scherf et al.
# Submitted via: CDex 1.70beta2
#
DISCID=090e9e14
DTITLE=Benny Goodman - Jazz Roads CD123 - Swing - Benny Goodman Groups Vol.2 (1936-37)
DYEAR=2006
DGENRE=Jazz
TTITLE0=Benny Goodman Quartet - Stompin' At The Savoy (1)
TTITLE1=Benny Goodman Quartet - Stompin' At The Savoy (2)
TTITLE2=Benny Goodman Quartet - Whispering
TTITLE3=Benny Goodman Quartet - Tiger Rag (1)
TTITLE4=Benny Goodman Quartet - Tiger Rag (2)
TTITLE5=Benny Goodman Quartet - Ida, Sweet As Apple Cider
TTITLE6=Benny Goodman Quartet - Tea For Two
TTITLE7=Benny Goodman Quartet - Runnin' Wild
TTITLE8=Benny Goodman Quartet - Avalon
TTITLE9=Benny Goodman Quartet - Handful Of Keys
TTITLE10=Benny Goodman Quartet - The Man I Love
TTITLE11=Benny Goodman Quartet - Smiles
TTITLE12=Benny Goodman Quartet - Liza
TTITLE13=Benny Goodman Trio - Where Or When
TTITLE14=Benny Goodman Trio - Silhouetted In The Moonlight
TTITLE15=Benny Goodman Quartet  - Vieni, Vieni
TTITLE16=Benny Goodman Quartet  - I'm A Ding Dong Daddy (From Dumas) (1)
TTITLE17=Benny Goodman Quartet  - I'm A Ding Dong Daddy (From Dumas) (2)
TTITLE18=Benny Goodman Quartet  - Bei Mir Bist Du Schoen, Part 1
TTITLE19=Benny Goodman Quartet  - Bei Mir Bist Du Schoen, Part 2
EXTD=YEAR: 2006
EXTT0=
EXTT1=
EXTT2=
EXTT3=
EXTT4=
EXTT5=
EXTT6=
EXTT7=
EXTT8=
EXTT9=
EXTT10=
EXTT11=
EXTT12=
EXTT13=
EXTT14=
EXTT15=
EXTT16=
EXTT17=
EXTT18=
EXTT19=
PLAYORDER=
